<svg width="79" height="23" viewBox="0 0 79 23" fill="none" xmlns="http://www.w3.org/2000/svg">
<path d="M41.2412 20H37.8037L37.8252 17.293H41.2412C42.0218 17.293 42.6807 17.1139 43.2178 16.7559C43.7549 16.3906 44.1631 15.8535 44.4424 15.1445C44.7217 14.4284 44.8613 13.5583 44.8613 12.5342V11.8145C44.8613 11.041 44.7826 10.3607 44.625 9.77344C44.4674 9.17904 44.2347 8.68132 43.9268 8.28027C43.6188 7.87923 43.2357 7.57845 42.7773 7.37793C42.3262 7.17741 41.807 7.07715 41.2197 7.07715H37.7393V4.35938H41.2197C42.2796 4.35938 43.2464 4.53841 44.1201 4.89648C45.001 5.25456 45.7601 5.7666 46.3975 6.43262C47.042 7.09863 47.5397 7.88639 47.8906 8.7959C48.2415 9.7054 48.417 10.7188 48.417 11.8359V12.5342C48.417 13.6442 48.2415 14.6576 47.8906 15.5742C47.5397 16.4837 47.042 17.2715 46.3975 17.9375C45.7601 18.5964 45.0046 19.1048 44.1309 19.4629C43.2572 19.821 42.2939 20 41.2412 20ZM39.791 4.35938V20H36.2891V4.35938H39.791Z" fill="black"/>
<path d="M63.5957 11.8359V12.5342C63.5957 13.723 63.431 14.79 63.1016 15.7354C62.7793 16.6807 62.3174 17.4863 61.7158 18.1523C61.1214 18.8184 60.4124 19.3304 59.5889 19.6885C58.7725 20.0394 57.8665 20.2148 56.8711 20.2148C55.8757 20.2148 54.9661 20.0394 54.1426 19.6885C53.319 19.3304 52.6029 18.8184 51.9941 18.1523C51.3926 17.4863 50.9271 16.6807 50.5977 15.7354C50.2682 14.79 50.1035 13.723 50.1035 12.5342V11.8359C50.1035 10.6471 50.2682 9.58008 50.5977 8.63477C50.9271 7.68229 51.389 6.87305 51.9834 6.20703C52.585 5.54102 53.2975 5.03255 54.1211 4.68164C54.9447 4.32357 55.8542 4.14453 56.8496 4.14453C57.8451 4.14453 58.7546 4.32357 59.5781 4.68164C60.4017 5.03255 61.1107 5.54102 61.7051 6.20703C62.3066 6.87305 62.7721 7.68229 63.1016 8.63477C63.431 9.58008 63.5957 10.6471 63.5957 11.8359ZM60.0615 12.5342V11.8145C60.0615 11.0195 59.9899 10.3177 59.8467 9.70898C59.7035 9.0931 59.4958 8.57747 59.2236 8.16211C58.9515 7.74674 58.6149 7.43522 58.2139 7.22754C57.8128 7.0127 57.3581 6.90527 56.8496 6.90527C56.3197 6.90527 55.8577 7.0127 55.4639 7.22754C55.07 7.43522 54.737 7.74674 54.4648 8.16211C54.1999 8.57747 53.9958 9.0931 53.8525 9.70898C53.7165 10.3177 53.6484 11.0195 53.6484 11.8145V12.5342C53.6484 13.3219 53.7165 14.0238 53.8525 14.6396C53.9958 15.2484 54.2035 15.764 54.4756 16.1865C54.7477 16.609 55.0807 16.9277 55.4746 17.1426C55.8757 17.3574 56.3411 17.4648 56.8711 17.4648C57.3796 17.4648 57.8307 17.3574 58.2246 17.1426C58.6257 16.9277 58.9622 16.609 59.2344 16.1865C59.5065 15.764 59.7106 15.2484 59.8467 14.6396C59.9899 14.0238 60.0615 13.3219 60.0615 12.5342Z" fill="black"/>
<path d="M78.3447 11.7393V18.0449C78.0869 18.3385 77.693 18.6536 77.1631 18.9902C76.6403 19.3268 75.9707 19.6169 75.1543 19.8604C74.3379 20.0967 73.3639 20.2148 72.2324 20.2148C71.2083 20.2148 70.2773 20.0501 69.4395 19.7207C68.6016 19.3841 67.8818 18.8936 67.2803 18.249C66.6787 17.5973 66.2132 16.8024 65.8838 15.8643C65.5615 14.9261 65.4004 13.8519 65.4004 12.6416V11.7178C65.4004 10.5075 65.5615 9.43327 65.8838 8.49512C66.2061 7.55697 66.6608 6.76562 67.248 6.12109C67.8353 5.4694 68.5335 4.97526 69.3428 4.63867C70.152 4.30208 71.0472 4.13379 72.0283 4.13379C73.4248 4.13379 74.5671 4.35938 75.4551 4.81055C76.3431 5.25456 77.0163 5.87044 77.4746 6.6582C77.9401 7.44596 78.2266 8.35189 78.334 9.37598H74.9609C74.8893 8.85319 74.7461 8.40202 74.5312 8.02246C74.3236 7.6429 74.0264 7.35286 73.6396 7.15234C73.2529 6.94466 72.7516 6.84082 72.1357 6.84082C71.6416 6.84082 71.194 6.94466 70.793 7.15234C70.3991 7.35286 70.0661 7.65723 69.7939 8.06543C69.5218 8.47363 69.3141 8.9821 69.1709 9.59082C69.0277 10.1924 68.9561 10.8942 68.9561 11.6963V12.6416C68.9561 13.4437 69.0277 14.1491 69.1709 14.7578C69.3213 15.3665 69.5397 15.875 69.8262 16.2832C70.1126 16.6842 70.4743 16.9886 70.9111 17.1963C71.3551 17.404 71.8708 17.5078 72.458 17.5078C72.9163 17.5078 73.3031 17.472 73.6182 17.4004C73.9333 17.3216 74.1911 17.2249 74.3916 17.1104C74.5921 16.9886 74.7425 16.8776 74.8428 16.7773V14.1777H72.0605V11.7393H78.3447Z" fill="black"/>
<path d="M15.0077 0.0370348C14.3818 0.216377 13.9457 0.480116 13.4816 0.951328C12.6903 1.75309 12.2015 2.87135 12.0363 4.26037C11.9167 5.28016 12.0433 6.16632 12.4266 6.97512C12.613 7.37248 12.7466 7.57292 13.0209 7.85776C13.5167 8.37469 14.0618 8.63843 14.649 8.63843C14.9761 8.63843 15.2082 8.57513 15.5739 8.39227C16.8504 7.75227 17.7506 6.31753 17.9862 4.55927C18.0812 3.8419 18.0179 2.79047 17.8385 2.17859C17.5502 1.18342 16.8504 0.38517 16.0064 0.0897826C15.7462 -0.00164681 15.2328 -0.0297789 15.0077 0.0370348Z" fill="black"/>
<path d="M6.60678 0.156457C5.75227 0.437779 5.04545 1.27823 4.77819 2.32966C4.73951 2.47384 4.69028 2.82901 4.66566 3.11736C4.525 4.84749 5.11929 6.60574 6.21644 7.68883C6.65249 8.12136 7.2714 8.49411 7.76723 8.62422C8.47756 8.8106 9.41296 8.39917 9.92637 7.67476C10.4187 6.98201 10.6508 6.17321 10.6508 5.13936C10.6508 4.52748 10.5875 4.04221 10.4398 3.47605C10.0072 1.81977 9.0613 0.655802 7.76723 0.198656C7.45074 0.0861272 6.88458 0.0650281 6.60678 0.156457Z" fill="black"/>
<path d="M20.1805 6.86603C19.3647 7.03834 18.5313 7.60801 17.9651 8.3711C17.4025 9.1377 17.0614 9.99924 16.9102 11.0366C16.8258 11.6239 16.8222 11.856 16.8926 12.2955C17.0051 12.9883 17.2864 13.5826 17.7014 14.001C17.9897 14.2929 18.264 14.4617 18.6086 14.5496C19.3893 14.7571 20.4056 14.4125 21.2109 13.667C21.7313 13.1887 22.2869 12.2955 22.5366 11.5324C22.7687 10.8327 22.8812 9.93594 22.8179 9.32055C22.7616 8.77198 22.5436 8.16011 22.2588 7.74516C22.1603 7.60098 21.8614 7.29856 21.6926 7.16845C21.2917 6.859 20.7291 6.74647 20.1805 6.86603Z" fill="black"/>
<path d="M1.98256 7.29147C1.08585 7.42861 0.407166 8.01235 0.17156 8.84929C-0.0042659 9.48226 -0.0464641 10.1539 0.0519983 10.815C0.224308 11.9825 0.734202 13.0339 1.50784 13.8111C2.03883 14.3421 2.52762 14.648 3.19576 14.8696C3.98698 15.1263 4.68676 14.9399 5.25644 14.3245C5.74172 13.8005 5.92809 13.2625 5.96326 12.2779C5.97732 11.8383 5.97029 11.6766 5.90699 11.3144C5.71359 10.1785 5.22479 9.22555 4.43006 8.42379C3.89555 7.88576 3.27664 7.48136 2.7984 7.35828C2.58741 7.30202 2.14081 7.26685 1.98256 7.29147Z" fill="black"/>
<path d="M11.0798 11.8032C9.42352 12.0142 7.80944 12.9706 6.79316 14.3526C5.93162 15.5201 5.267 16.7333 4.83446 17.936C4.54259 18.7412 4.28589 19.8103 4.28589 20.2287C4.28589 21.1782 4.89425 22.1206 5.72766 22.4617C6.04766 22.5918 6.44503 22.6481 6.81778 22.6164C7.48943 22.5637 7.94658 22.4406 9.15626 21.9835C10.4503 21.4947 10.7844 21.4032 11.558 21.3118C12.6165 21.1852 13.3233 21.3329 14.8706 21.994C16.2385 22.5778 16.548 22.6692 17.1212 22.6692C18.1937 22.6692 19.0517 22.1065 19.312 21.2345C19.4034 20.918 19.4104 20.1303 19.3225 19.7681C19.101 18.8538 18.6966 17.936 18.0777 16.9373C16.6886 14.6973 15.6161 13.4559 14.3255 12.5944C13.7523 12.2111 13.2073 11.979 12.5813 11.8559C12.2578 11.7891 11.4209 11.761 11.0798 11.8032Z" fill="black"/>
</svg>
